<svg version="1" xmlns="http://www.w3.org/2000/svg" width="982.667" height="982.667" viewBox="0 0 737.000000 737.000000"><path d="M216.9 11.6c-9.2 2.8-19.2 14.9-22.4 26.9-2.3 8.9-1.9 17.2 1.1 26 2.1 6.1 2.4 7.8 1.4 9-2 2.4-7.3 1.7-14.6-1.8-6.4-2.9-7.7-3.2-16.9-3.2s-10.4.2-15.3 3c-6.2 3.4-13.3 10.7-18.2 18.8-3.9 6.5-6.9 8.2-12 6.7-6.2-1.8-14.8-1.2-19.1 1.2-7.1 4-11 15.3-11.2 32.3 0 11.5 1.3 17.1 4.9 21.5 2.3 2.7 2.6 3.7 2 7.8-.5 4.1-.2 5.3 2.3 9.1 1.7 2.5 2.7 4.9 2.4 5.5-.4.6-2.9 4.4-5.6 8.4-7 10.5-8.7 14.7-8.7 21.7 0 8.1 1.5 12.9 5.4 17.3l3.3 3.7.6 15c.9 20.5 5.2 41 11.5 54.3 4 8.6 13 14 26.9 16.2 9.2 1.5 10.6 1 13.1-4.7 2.1-4.9 5.2-19.4 5.2-24.2 0-4.1 4.4-12.1 10.3-18.7 2.9-3.2 6.3-7.6 7.6-9.6 4.5-7.4 13.6-13 21.1-13 5.6 0 13.4 3.2 14.9 6.1 1.4 2.6 4.3 2.7 11.8.5 4-1.2 8.2-1.5 14.6-1.2l8.9.4 8.7 9.1c11.2 11.8 20.3 16.4 23 11.6.8-1.5 1.3-1.4 5.2 1.2 5.4 3.5 12.7 4.5 15.2 2 .9-.9 1.7-2.1 1.7-2.5 0-.5-3.4-3.5-7.5-6.6-5.6-4.2-7.4-6.1-6.9-7.3 4.8-11.4 4.8-11.6-5.1-19.7-6.8-5.5-8.5-7.4-8.5-9.6 0-1.5-.8-4.9-1.9-7.5-1-2.6-2.6-8.1-3.5-12.2-.9-4.1-3.9-13.2-6.7-20.3-8.4-21.7-8.7-23.9-6.7-42 1.3-11.5.3-23.5-2.7-32.2-1.8-5.2-.7-6.6 6.5-7.7 8.9-1.4 10.4-3.3 12.4-15 .4-2.1 2-5 3.7-6.8 2-2.2 2.8-3.8 2.4-4.9-3-7.9-4.6-14.2-4.2-16.7.9-5.4 4.9-14.7 7-16.4 7.1-5.5 9.9-9.9 5.7-8.8-1.1.3-2.3.1-2.6-.4-.3-.5-1.4-.9-2.4-.9-1.1 0-5.7-3.4-10.2-7.5-9.5-8.7-15.1-11.7-26-13.9-9.3-1.9-15.8-1.9-21.9 0zm43.9 32.6c1.9 1.9 1.4 5.6-1.4 11.6-2.6 5.5-2.6 5.7-1 10.7 2.9 9.3 1.2 19.7-3.9 24.5-3.7 3.5-11.7 3.8-17.4.8-6.8-3.5-10.1-8.3-11.1-16-.4-3.6-1.3-7.5-2-8.8-2.5-4.7-3-8.1-1.6-11.5.8-1.8 1.9-3.5 2.4-3.9 1.7-1 4.2.5 5.8 3.5 1.9 3.8 2.7 3.7 4.3-.6 1.5-4.2 6.6-8.5 11.8-10.2 5-1.5 12.6-1.6 14.1-.1zm-60.7 72.2c-3.3 5.2-2.5 5.3 2 .2l4.2-4.7 2 2c2 2 2.1 2.1.2 4.2-1.9 2.1-1.9 2.1 0 3.4 7.2 5 10.3 10.4 7.9 14-.9 1.3-1.4 3.2-1.2 4.2.3 1-.6 3.3-2 5.1-1.3 1.8-2.1 3.9-1.8 4.7.6 1.8-2.1 7.2-4.9 9.7-1.1.9-3.1 1.7-4.5 1.8-1.4 0-10.4-3.8-20.1-8.5-9.7-4.7-19-8.8-20.8-9.1-3.3-.7-3.5-1.4-3.1-10.9.2-4.2 3.5-12.4 6.8-16.4 1.9-2.3 2-2.4 2.6-.4.3 1 2.5 3 4.9 4.3 6.6 3.6 8.4 5.8 11.2 13 1.4 3.7 3.4 7.5 4.5 8.5 1.8 1.7 1.8 1.6-.1-2.1-4.3-8.6-1.1-18.5 8.6-26.2 4.4-3.6 5-3.8 5.3-2.1.2 1.1-.6 3.4-1.7 5.3zm27.2 66.9c2.5 1.5 8.2 6.7 12.6 11.6 8.2 9.2 10.9 14.7 9.7 19.7-.6 2.1-1.2 2.4-5.9 2.4-4.9 0-5.6-.3-9.2-4.1-4.6-4.8-8.9-6.9-14-6.9-2.7 0-3.5-.4-3.5-1.8 0-3-2.8-6-7.4-8.1-11.9-5.2-6.5-16.7 7.5-15.8 3.8.2 7 1.2 10.2 3zM511 27.7c-10.6 1.7-32.6 6.2-48.2 9.9-10.3 2.4-20.5 4.4-22.5 4.4-2.1 0-5.4.4-7.3 1-4.2 1.2-11.6 8.3-13 12.4-1.2 3.9-.5 140.6.9 158.5 1.1 14.1.9 13.8 12.5 22.4l6.8 5.1-8.8 3.3c-4.8 1.9-9.4 3.9-10.1 4.5-2.2 1.8-1.5 6.8 1.3 10.1 2.1 2.5 2.5 3.8 2 6.6-.3 2-.6 4.4-.6 5.4 0 2.1 1.5 2.1-22.8-.5-8.9-.9-12.9-.9-19 .1-10.1 1.6-18.9.2-30.2-4.8-24.5-11-38.8-15.4-39.1-11.9-.3 2.7.4 4.3 3.2 8.5 1.6 2.3 3.2 5.6 3.6 7.3.5 2.8 0 3.6-4.2 7.6-2.7 2.4-4.6 4.6-4.4 4.9 1.1 1 18.4 2.5 29.2 2.5 11.1 0 12.3-.2 19-3.1 4.4-2 9.5-3.4 13.3-3.7 5.7-.4 6.5-.2 8.8 2.1 3.4 3.4 3.3 6.2-.4 10.4-4.8 5.5-3.7 8.7 4.5 12.4 5.9 2.7 11.2 2.4 19-1.2 3.7-1.6 8.5-3.1 10.6-3.2 3.5-.1 4.5.5 9.8 5.7l5.9 5.8 13.3-2.5c19.4-3.6 22.2-3.9 27-2.2 4.9 1.8 10.9 1.9 16.2.4 2.9-.8 4.2-1.9 5.8-5.2 4.3-8.6 5.2-8.8 20.4-5.8 12.7 2.6 16.9 2.1 25.8-2.8 19.7-10.9 44.2-32.5 49.2-43.4 5.9-12.7 12.5-52.3 12.5-74.1 0-29-9.6-67.7-23.3-94.7-11-21.5-29.2-42.8-42.3-49.7-5.5-2.9-7-3.2-14-3.1-4.4.1-9 .4-10.4.6zm11.4 69.9c2.8 3.3 3.7 5.1 3.3 6.9-.6 3.2-.1 3.1 3.4-.6l2.8-3 2.4 3.8c2.7 4.4 6.1 13.2 5.4 13.9-.2.3-4.6 1.6-9.6 2.9-10.3 2.8-13.3 4.4-14.9 8.1-1.7 3.6-1.6 4.2 2 11.1 2.9 5.8 3.1 6.5 1.9 10.2-1.1 3.8-5.5 10.1-6.9 10.1-.4 0-1.7-1.8-3-4-1.3-2.3-4.6-5.7-7.3-7.7-4.8-3.4-5-3.7-4.4-7.3 1.3-7.4-2.8-5.9-8.6 3.1-2.9 4.5-3 5-1.5 7.1.9 1.2 1.6 3.8 1.6 5.8 0 1.9.5 5.1 1 7 1.7 5.9 1.5 9.6-.9 12.5-1.6 2.2-2 3.6-1.5 6.2.5 2.7.2 3.9-1.7 5.9-3.2 3.4-5.1 3-10.9-2.1-4.1-3.6-5.5-4.3-6.9-3.6-2.9 1.6-4.4 4-4.4 7.2 0 1.6-.2 2.9-.3 2.9-.6 0-8.9-3.3-9.3-3.7-.3-.2 2-2.8 4.9-5.8l5.4-5.5-3.2-9.5c-3.5-10.3-4-15.9-1.7-19.2 1.4-2 1.4-2.2-.7-2.5-1.8-.2-2.2-.9-2-2.8.5-5-1.1-5.4-7-2.1-6.7 3.8-7.8 3.9-7.8.3 0-6.3 3.3-32 4.5-34.8 1.8-4.3 5.3-5 11.2-2.4 2.5 1.1 5.6 2 6.9 2 2.5 0 5.4 2.4 5.4 4.5 0 .8.5 2.6 1 4.1l1.1 2.7 2.5-2.4c2.1-2 2.7-2.1 3.4-.9.5.8 1 1.9 1 2.5 0 .5 2.2-1.2 4.8-3.8 3.2-3.2 5.6-4.7 7.4-4.7 2.3 0 8.3-2.2 14.6-5.3 1.3-.6 3.5-3.2 4.8-5.8 3.7-7.4 6.3-7.7 11.8-1.3zm46.4 40.6c2 2 1.4 6.3-1.8 12.3-3.6 6.8-3.6 6.9-1 9.5 2.3 2.3 1.9 3.6-2.9 9.9-2.8 3.7-9.7 9.1-11.5 9.1-.7 0-3.6-1.6-6.6-3.5-6.4-4.1-10.4-4.4-14.9-1.3-1.7 1.3-5 3.6-7.2 5.3l-4.1 2.9-1.9-2.4c-1-1.4-1.9-2.8-1.9-3.2 0-.3 3.4-1.6 7.6-2.9 9.6-2.9 14.3-7.4 21.4-20.8 5.6-10.7 8.6-13.3 17.2-15 6.1-1.2 6.3-1.2 7.6.1z"/><path d="M612 81.5c31.8 33.2 61.3 85.8 75.5 134.5 25.8 88.9 16.3 186.2-25.1 256.7-20.5 35-44.5 62.9-75.4 87.7-53.8 43.1-102.6 60.5-170 60.6-59.7 0-114.9-21.9-149.8-59.6l-7.8-8.4-100.8.2c-91.3.3-101 .5-101.9 1.9-.8 1.3.5 3.9 6.1 12 20.6 30.3 53.5 64.5 84.7 88 49.7 37.6 101.4 59.9 160 69 19.5 3 72.6 3.9 95.2 1.5 66.5-7 124.6-28.6 176.3-65.6 48.4-34.7 90.2-82.6 115.7-132.7 27.1-53 38.4-96.1 41.2-156.8 4-84.2-17.1-157-65.3-225.9-15.7-22.4-39.8-49-59-65.3l-9.1-7.7 9.5 9.9z"/><path d="M96 434.5V530h45V339H96v95.5zM167 356.5V374l45.9.2 45.9.3-45.3 65.5-45.4 65.5v12.2L168 530h148v-35h-45.5c-25 0-45.5-.2-45.5-.5s20.2-30.2 45-66.4l45-66V339H167v17.5zM340 434.5V530h45V339h-45v95.5z"/></svg>